<svg width="800" height="800" viewBox="0 0 800 800" fill="none" xmlns="http://www.w3.org/2000/svg">
<mask id="mask0_4_2298" style="mask-type:luminance" maskUnits="userSpaceOnUse" x="90" y="82" width="620" height="621">
<path d="M710 392.667C710 563.875 571.208 702.667 400 702.667C228.792 702.667 90 563.875 90 392.667C90 221.459 228.792 82.6667 400 82.6667C571.208 82.6667 710 221.459 710 392.667Z" fill="white"/>
</mask>
<g mask="url(#mask0_4_2298)">
<path d="M710 392.667C710 563.875 571.208 702.667 400 702.667C228.792 702.667 90 563.875 90 392.667C90 221.459 228.792 82.6667 400 82.6667C571.208 82.6667 710 221.459 710 392.667Z" fill="url(#paint0_radial_4_2298)"/>
</g>
<mask id="mask1_4_2298" style="mask-type:luminance" maskUnits="userSpaceOnUse" x="83" y="76" width="634" height="634">
<path d="M489 682.795C500.003 672.059 512.027 658.7 523.94 642.452C563.381 631.748 595.413 616.581 621.037 600.383C618.889 602.665 616.716 604.929 614.489 607.156C578.843 642.803 535.885 668.476 489 682.795ZM178.963 600.383C204.587 616.581 236.619 631.748 276.06 642.452C287.973 658.7 299.997 672.059 311 682.795C264.115 668.476 221.157 642.803 185.511 607.156C183.284 604.929 181.111 602.665 178.963 600.383ZM142.349 232.403C156.209 251.384 180.983 278.245 221.24 300.629C220.145 303.999 219.084 307.373 218.091 310.764C202.589 363.653 199.419 419.287 208.623 476.311C142.244 449.852 109.285 414.197 96.7265 397.548C96.7005 395.921 96.6666 394.297 96.6666 392.667C96.6666 335.12 112.599 280.028 142.349 232.403ZM185.511 178.177C237.404 126.285 304.787 95.5107 377.232 90.1707C355.477 106.221 318.741 136.821 284.357 181.875C258.884 215.253 239.216 250.805 225.664 287.833C185.748 265.181 162.365 238.109 150.216 220.453C160.584 205.483 172.361 191.328 185.511 178.177ZM649.784 220.453C637.635 238.109 614.252 265.181 574.336 287.833C560.784 250.805 541.116 215.253 515.643 181.875C481.259 136.821 444.523 106.221 422.768 90.1707C495.213 95.5107 562.596 126.285 614.489 178.177C627.639 191.328 639.416 205.483 649.784 220.453ZM703.273 397.548C690.715 414.197 657.756 449.852 591.377 476.311C600.581 419.287 597.411 363.653 581.909 310.764C580.916 307.373 579.855 303.999 578.76 300.629C619.017 278.245 643.791 251.384 657.651 232.403C687.401 280.028 703.333 335.12 703.333 392.667C703.333 394.297 703.3 395.921 703.273 397.548ZM406.667 644.624V521.956C475.561 521.333 530.52 511.129 573.928 496.757C561.328 554.417 539.009 598.34 515.936 630.776C484.496 638.908 448.256 644.119 406.667 644.624ZM226.072 496.757C269.48 511.129 324.439 521.333 393.333 521.956V644.624C351.744 644.119 315.504 638.908 284.064 630.776C260.991 598.34 238.672 554.417 226.072 496.757ZM393.333 328.616C326.009 327.711 275.26 313.149 237.548 294.188C250.604 257.924 269.745 223.076 294.664 190.347C332.64 140.472 374.532 108.236 393.333 95.0973V328.616ZM406.667 328.616V95.0973C425.471 108.237 467.36 140.472 505.336 190.347C530.255 223.076 549.396 257.924 562.452 294.188C524.74 313.149 473.991 327.711 406.667 328.616ZM569.195 314.796C584.741 368 587.332 424.14 576.921 481.733C533.777 496.916 477.988 507.971 406.667 508.623V341.949C475.364 341.049 527.604 326.307 566.787 306.911C567.62 309.532 568.425 312.16 569.195 314.796ZM230.805 314.796C231.575 312.16 232.38 309.532 233.213 306.911C272.396 326.307 324.636 341.049 393.333 341.949V508.623C322.012 507.971 266.223 496.916 223.079 481.733C212.668 424.14 215.259 368 230.805 314.796ZM97.8526 419.503C116.883 439.913 152.288 469.452 211.381 491.585C222.496 547.435 242.455 591.344 264.103 625.041C210.04 607.875 171.867 582.131 146.2 558.935C118.818 517.321 102.223 469.684 97.8526 419.503ZM296.804 647.505C325.365 653.688 357.435 657.533 393.333 657.959V695.919C374.864 695.524 356.673 693.481 338.92 689.871C327.028 680.201 312.115 666.299 296.804 647.505ZM461.08 689.871C443.327 693.481 425.136 695.524 406.667 695.919V657.959C442.565 657.533 474.635 653.688 503.196 647.505C487.885 666.299 472.972 680.201 461.08 689.871ZM653.8 558.935C628.133 582.131 589.96 607.875 535.897 625.041C557.545 591.344 577.504 547.435 588.619 491.585C647.712 469.452 683.119 439.913 702.147 419.503C697.777 469.684 681.183 517.321 653.8 558.935ZM623.917 168.749C564.107 108.939 484.584 76 400 76C315.416 76 235.893 108.939 176.084 168.749C116.272 228.56 83.3333 308.083 83.3333 392.667C83.3333 477.251 116.272 556.773 176.084 616.584C235.893 676.395 315.416 709.333 400 709.333C484.584 709.333 564.107 676.395 623.917 616.584C683.728 556.773 716.667 477.251 716.667 392.667C716.667 308.083 683.728 228.56 623.917 168.749Z" fill="white"/>
</mask>
<g mask="url(#mask1_4_2298)">
<path d="M489 682.795C500.003 672.059 512.027 658.7 523.94 642.452C563.381 631.748 595.413 616.581 621.037 600.383C618.889 602.665 616.716 604.929 614.489 607.156C578.843 642.803 535.885 668.476 489 682.795ZM178.963 600.383C204.587 616.581 236.619 631.748 276.06 642.452C287.973 658.7 299.997 672.059 311 682.795C264.115 668.476 221.157 642.803 185.511 607.156C183.284 604.929 181.111 602.665 178.963 600.383ZM142.349 232.403C156.209 251.384 180.983 278.245 221.24 300.629C220.145 303.999 219.084 307.373 218.091 310.764C202.589 363.653 199.419 419.287 208.623 476.311C142.244 449.852 109.285 414.197 96.7265 397.548C96.7005 395.921 96.6666 394.297 96.6666 392.667C96.6666 335.12 112.599 280.028 142.349 232.403ZM185.511 178.177C237.404 126.285 304.787 95.5107 377.232 90.1707C355.477 106.221 318.741 136.821 284.357 181.875C258.884 215.253 239.216 250.805 225.664 287.833C185.748 265.181 162.365 238.109 150.216 220.453C160.584 205.483 172.361 191.328 185.511 178.177ZM649.784 220.453C637.635 238.109 614.252 265.181 574.336 287.833C560.784 250.805 541.116 215.253 515.643 181.875C481.259 136.821 444.523 106.221 422.768 90.1707C495.213 95.5107 562.596 126.285 614.489 178.177C627.639 191.328 639.416 205.483 649.784 220.453ZM703.273 397.548C690.715 414.197 657.756 449.852 591.377 476.311C600.581 419.287 597.411 363.653 581.909 310.764C580.916 307.373 579.855 303.999 578.76 300.629C619.017 278.245 643.791 251.384 657.651 232.403C687.401 280.028 703.333 335.12 703.333 392.667C703.333 394.297 703.3 395.921 703.273 397.548ZM406.667 644.624V521.956C475.561 521.333 530.52 511.129 573.928 496.757C561.328 554.417 539.009 598.34 515.936 630.776C484.496 638.908 448.256 644.119 406.667 644.624ZM226.072 496.757C269.48 511.129 324.439 521.333 393.333 521.956V644.624C351.744 644.119 315.504 638.908 284.064 630.776C260.991 598.34 238.672 554.417 226.072 496.757ZM393.333 328.616C326.009 327.711 275.26 313.149 237.548 294.188C250.604 257.924 269.745 223.076 294.664 190.347C332.64 140.472 374.532 108.236 393.333 95.0974V328.616ZM406.667 328.616V95.0974C425.471 108.237 467.36 140.472 505.336 190.347C530.255 223.076 549.396 257.924 562.452 294.188C524.74 313.149 473.991 327.711 406.667 328.616ZM569.195 314.796C584.741 368 587.332 424.14 576.921 481.733C533.777 496.916 477.988 507.971 406.667 508.623V341.949C475.364 341.049 527.604 326.307 566.787 306.911C567.62 309.532 568.425 312.16 569.195 314.796ZM230.805 314.796C231.575 312.16 232.38 309.532 233.213 306.911C272.396 326.307 324.636 341.049 393.333 341.949V508.623C322.012 507.971 266.223 496.916 223.079 481.733C212.668 424.14 215.259 368 230.805 314.796ZM97.8526 419.503C116.883 439.913 152.288 469.452 211.381 491.585C222.496 547.435 242.455 591.344 264.103 625.041C210.04 607.875 171.867 582.131 146.2 558.935C118.818 517.321 102.223 469.684 97.8526 419.503ZM296.804 647.505C325.365 653.688 357.435 657.533 393.333 657.959V695.919C374.864 695.524 356.673 693.481 338.92 689.871C327.028 680.201 312.115 666.299 296.804 647.505ZM461.08 689.871C443.327 693.481 425.136 695.524 406.667 695.919V657.959C442.565 657.533 474.635 653.688 503.196 647.505C487.885 666.299 472.972 680.201 461.08 689.871ZM653.8 558.935C628.133 582.131 589.96 607.875 535.897 625.041C557.545 591.344 577.504 547.435 588.619 491.585C647.712 469.452 683.119 439.913 702.147 419.503C697.777 469.684 681.183 517.321 653.8 558.935ZM623.917 168.749C564.107 108.939 484.584 76 400 76C315.416 76 235.893 108.939 176.084 168.749C116.272 228.56 83.3333 308.083 83.3333 392.667C83.3333 477.251 116.272 556.773 176.084 616.584C235.893 676.395 315.416 709.333 400 709.333C484.584 709.333 564.107 676.395 623.917 616.584C683.728 556.773 716.667 477.251 716.667 392.667C716.667 308.083 683.728 228.56 623.917 168.749Z" fill="url(#paint1_linear_4_2298)"/>
</g>
<path d="M465 470C430.701 484.383 154.05 506.749 108 512.5L124.5 544L141.5 571.5C168 574 419 540.861 481.5 532.5L465 470Z" fill="url(#paint2_linear_4_2298)"/>
<path d="M431.728 385C397.429 399.383 132.55 414.749 86.5 420.5L92.5 464L100 489C128 485 395.5 458 457.5 449L431.728 385Z" fill="url(#paint3_linear_4_2298)"/>
<path d="M400.728 295C366.429 309.383 136.05 323.749 90 329.5L85 367.5V402.5C110 402.5 362.5 372.5 426.5 359L400.728 295Z" fill="url(#paint4_linear_4_2298)"/>
<circle cx="399.5" cy="182.5" r="16.5" fill="#F8E33F"/>
<circle cx="513" cy="565" r="10" fill="#F8E33F"/>
<circle cx="175.5" cy="571.5" r="7.5" fill="#EEFF00"/>
<circle cx="151.5" cy="231.5" r="16.5" fill="#F8E33F"/>
<circle cx="651" cy="341" r="5" fill="#EEFF00"/>
<circle cx="591" cy="421" r="18" fill="#F8E33F"/>
<g filter="url(#filter0_d_4_2298)">
<path d="M412.308 391.884L365 267.159L510.987 283.258L412.308 391.884Z" fill="#EEFF00"/>
</g>
<g filter="url(#filter1_d_4_2298)">
<path d="M439.758 485.964L400 358.631L544.761 383.439L439.758 485.964Z" fill="#EEFF00"/>
</g>
<g filter="url(#filter2_d_4_2298)">
<path d="M461 572.5L429 443L572 476.5L461 572.5Z" fill="#EEFF00"/>
</g>
<defs>
<filter id="filter0_d_4_2298" x="361" y="259.159" width="153.987" height="132.725" filterUnits="userSpaceOnUse" color-interpolation-filters="sRGB">
<feFlood flood-opacity="0" result="BackgroundImageFix"/>
<feColorMatrix in="SourceAlpha" type="matrix" values="0 0 0 0 0 0 0 0 0 0 0 0 0 0 0 0 0 0 127 0" result="hardAlpha"/>
<feOffset dy="-4"/>
<feGaussianBlur stdDeviation="2"/>
<feComposite in2="hardAlpha" operator="out"/>
<feColorMatrix type="matrix" values="0 0 0 0 0 0 0 0 0 0 0 0 0 0 0 0 0 0 0.25 0"/>
<feBlend mode="normal" in2="BackgroundImageFix" result="effect1_dropShadow_4_2298"/>
<feBlend mode="normal" in="SourceGraphic" in2="effect1_dropShadow_4_2298" result="shape"/>
</filter>
<filter id="filter1_d_4_2298" x="396" y="350.631" width="152.761" height="135.332" filterUnits="userSpaceOnUse" color-interpolation-filters="sRGB">
<feFlood flood-opacity="0" result="BackgroundImageFix"/>
<feColorMatrix in="SourceAlpha" type="matrix" values="0 0 0 0 0 0 0 0 0 0 0 0 0 0 0 0 0 0 127 0" result="hardAlpha"/>
<feOffset dy="-4"/>
<feGaussianBlur stdDeviation="2"/>
<feComposite in2="hardAlpha" operator="out"/>
<feColorMatrix type="matrix" values="0 0 0 0 0 0 0 0 0 0 0 0 0 0 0 0 0 0 0.25 0"/>
<feBlend mode="normal" in2="BackgroundImageFix" result="effect1_dropShadow_4_2298"/>
<feBlend mode="normal" in="SourceGraphic" in2="effect1_dropShadow_4_2298" result="shape"/>
</filter>
<filter id="filter2_d_4_2298" x="427" y="435" width="151" height="137.5" filterUnits="userSpaceOnUse" color-interpolation-filters="sRGB">
<feFlood flood-opacity="0" result="BackgroundImageFix"/>
<feColorMatrix in="SourceAlpha" type="matrix" values="0 0 0 0 0 0 0 0 0 0 0 0 0 0 0 0 0 0 127 0" result="hardAlpha"/>
<feOffset dx="2" dy="-4"/>
<feGaussianBlur stdDeviation="2"/>
<feComposite in2="hardAlpha" operator="out"/>
<feColorMatrix type="matrix" values="0 0 0 0 0 0 0 0 0 0 0 0 0 0 0 0 0 0 0.25 0"/>
<feBlend mode="normal" in2="BackgroundImageFix" result="effect1_dropShadow_4_2298"/>
<feBlend mode="normal" in="SourceGraphic" in2="effect1_dropShadow_4_2298" result="shape"/>
</filter>
<radialGradient id="paint0_radial_4_2298" cx="0" cy="0" r="1" gradientUnits="userSpaceOnUse" gradientTransform="translate(379.471 271.635) rotate(45) scale(404.28)">
<stop stop-color="#89B6FF"/>
<stop offset="0.844866" stop-color="#1048A3"/>
<stop offset="1" stop-color="#043687"/>
</radialGradient>
<linearGradient id="paint1_linear_4_2298" x1="246.64" y1="100.864" x2="550.272" y2="678.591" gradientUnits="userSpaceOnUse">
<stop stop-color="#F8E33F"/>
<stop offset="0.223812" stop-color="#F8E33F"/>
<stop offset="0.264668" stop-color="#F8E33F"/>
<stop offset="0.32679" stop-color="#F8E33F" stop-opacity="0.890196"/>
<stop offset="0.729452" stop-color="#F8E33F"/>
<stop offset="0.769093" stop-color="#F8E33F"/>
<stop offset="0.817841" stop-color="#F8E33F"/>
<stop offset="1" stop-color="#F8E33F"/>
</linearGradient>
<linearGradient id="paint2_linear_4_2298" x1="108" y1="520.817" x2="481.5" y2="520.817" gradientUnits="userSpaceOnUse">
<stop stop-color="#F8E33F"/>
<stop offset="1" stop-color="#EEFF00"/>
</linearGradient>
<linearGradient id="paint3_linear_4_2298" x1="86.5" y1="437" x2="457.5" y2="437" gradientUnits="userSpaceOnUse">
<stop stop-color="#F8E33F"/>
<stop offset="1" stop-color="#EEFF00"/>
</linearGradient>
<linearGradient id="paint4_linear_4_2298" x1="85" y1="348.75" x2="426.5" y2="348.75" gradientUnits="userSpaceOnUse">
<stop stop-color="#F8E33F"/>
<stop offset="1" stop-color="#EEFF00"/>
</linearGradient>
</defs>
</svg>
